<?xml version="1.0" encoding="UTF-8"?>
<svg xmlns="http://www.w3.org/2000/svg" viewBox="0 0 64 64" width="64" height="64">
  <path fill="#ffffff" fill-rule="evenodd" d="M32.23 40.38 L32.23 40.38 Q32.23 43.85 29.37 46.03 Q26.51 48.20 21.02 48.20 L21.02 48.20 L6.21 48.20 Q6.12 48.20 6.06 48.16 Q6.00 48.11 6.00 48.07 L6.00 48.07 Q6.00 47.93 6.25 47.90 L6.25 47.90 L8.27 47.60 Q8.73 47.51 8.93 47.32 Q9.13 47.14 9.13 46.72 L9.13 46.72 L9.13 17.02 Q9.13 16.74 8.95 16.61 Q8.78 16.47 8.27 16.40 L8.27 16.40 L6.25 16.10 Q6.00 16.05 6.00 15.93 L6.00 15.93 Q6.00 15.87 6.06 15.83 Q6.12 15.80 6.21 15.80 L6.21 15.80 L17.11 15.80 Q21.42 15.80 24.37 16.95 Q27.32 18.11 28.85 20.16 Q30.38 22.21 30.38 24.89 L30.38 24.89 Q30.38 27.12 29.17 28.89 Q27.97 30.66 25.70 31.69 Q23.43 32.72 20.24 32.72 L20.24 32.72 L21.09 32.60 Q24.38 32.60 26.89 33.61 Q29.40 34.62 30.82 36.38 Q32.23 38.13 32.23 40.38 M18.85 32.93 L18.85 32.93 L14.03 32.93 L14.03 32.51 L19.22 32.51 Q21.23 32.51 22.61 31.63 Q23.99 30.75 24.68 29.11 Q25.38 27.46 25.38 25.17 L25.38 25.17 Q25.38 22.49 24.31 20.47 Q23.25 18.46 21.36 17.34 Q19.47 16.21 17.02 16.21 L17.02 16.21 L14.63 16.21 L14.63 46.86 Q14.63 47.35 14.96 47.57 Q15.28 47.79 15.88 47.79 L15.88 47.79 L19.70 47.79 Q21.90 47.79 23.47 46.84 Q25.03 45.89 25.86 44.20 Q26.70 42.51 26.70 40.31 L26.70 40.31 Q26.70 36.95 24.67 34.94 Q22.64 32.93 18.85 32.93"/>
  <path fill="#ffffff" fill-rule="evenodd" d="M41.28 31.72 L41.28 31.31 L47.97 31.31 Q49.80 31.31 50.65 30.47 Q51.51 29.64 51.70 27.42 L51.70 27.42 Q51.72 27.28 51.75 27.24 Q51.79 27.21 51.83 27.21 L51.83 27.21 Q52.00 27.19 52.07 27.46 L52.07 27.46 L54.40 35.17 Q54.45 35.29 54.43 35.36 Q54.40 35.43 54.33 35.45 L54.33 35.45 Q54.29 35.45 54.23 35.44 Q54.17 35.43 54.08 35.36 L54.08 35.36 Q53.11 33.90 52.31 33.11 Q51.51 32.32 50.64 32.02 Q49.77 31.72 48.55 31.72 L48.55 31.72 L41.28 31.72 M33.62 15.93 L33.62 15.93 Q33.62 15.87 33.67 15.83 Q33.73 15.80 33.82 15.80 L33.82 15.80 L53.18 15.80 Q53.69 15.80 54.10 15.63 Q54.52 15.47 54.80 15.31 Q55.08 15.15 55.14 15.15 L55.14 15.15 Q55.21 15.15 55.25 15.22 Q55.28 15.29 55.35 15.59 L55.35 15.59 L57.34 23.50 Q57.39 23.64 57.37 23.70 Q57.34 23.76 57.27 23.78 L57.27 23.78 Q57.23 23.78 57.18 23.76 Q57.14 23.74 57.04 23.64 L57.04 23.64 Q55.68 21.35 54.57 19.90 Q53.46 18.46 52.51 17.65 Q51.56 16.84 50.63 16.53 Q49.71 16.21 48.69 16.21 L48.69 16.21 L42.37 16.21 L42.37 46.79 Q42.37 47.28 42.66 47.53 Q42.95 47.79 43.50 47.79 L43.50 47.79 L48.94 47.79 Q50.31 47.79 51.53 47.08 Q52.76 46.38 54.21 44.37 Q55.65 42.37 57.65 38.44 L57.65 38.44 Q57.71 38.32 57.77 38.27 Q57.83 38.23 57.90 38.25 L57.90 38.25 Q57.97 38.25 57.99 38.34 Q58.02 38.44 57.97 38.60 L57.97 38.60 L55.61 48.39 Q55.54 48.67 55.49 48.76 Q55.45 48.85 55.40 48.85 L55.40 48.85 Q55.24 48.85 54.95 48.69 Q54.66 48.53 54.17 48.37 Q53.69 48.20 52.97 48.20 L52.97 48.20 L33.82 48.20 Q33.73 48.20 33.67 48.16 Q33.62 48.11 33.62 48.07 L33.62 48.07 Q33.62 47.93 33.87 47.90 L33.87 47.90 L35.89 47.60 Q36.32 47.53 36.53 47.39 Q36.74 47.26 36.74 46.98 L36.74 46.98 L36.74 17.02 Q36.74 16.74 36.53 16.59 Q36.32 16.44 35.89 16.40 L35.89 16.40 L33.87 16.10 Q33.62 16.05 33.62 15.93"/>
</svg>
